<?xml version="1.0" encoding="utf-8"?>
<!-- Generator: Adobe Illustrator 18.0.0, SVG Export Plug-In . SVG Version: 6.00 Build 0)  -->
<svg version="1.2" baseProfile="tiny" id="Layer_1" xmlns="http://www.w3.org/2000/svg" xmlns:xlink="http://www.w3.org/1999/xlink"
	 x="0px" y="0px" viewBox="0 0 57.1 56.9" xml:space="preserve">
<circle fill="#034EA2" cx="28.2" cy="28.6" r="28.2"/>
<circle fill="none" cx="28.2" cy="28.6" r="28.2"/>
<g id="fDU3ty.tif_4_">
	<g>
		<path fill="#FFFFFF" d="M36.5,12.6c-0.1,0.2-0.2,0.3-0.4,0.4c-0.1,0-0.2,0-0.2,0c-0.4,0-0.7,0-1.1,0.1c-0.5,0-0.9,0.1-1.4,0.1
			c-0.3,0-0.7,0-1,0.1c-0.5,0-0.9,0.1-1.4,0.1c-0.4,0-0.7,0-1.1,0.1c-0.5,0-0.9,0.1-1.4,0.1c-0.4,0-0.7,0-1.1,0.1
			c-0.5,0-1,0.1-1.4,0.1c-0.2,0-0.3,0-0.5,0c0.1,0.4-0.1,0.7-0.3,1.1c-0.1,0.2-0.3,0.5-0.4,0.7c-0.2,0.3-0.3,0.6-0.4,1
			c-0.5,1.4-0.9,2.9-1.4,4.3c0,0,0,0,0,0.1c0,0,0,0,0-0.1c0.4-0.6,0.7-1.3,1.1-1.9c0.1-0.2,0.3-0.5,0.5-0.7c0.1-0.1,0.1-0.1,0.2-0.2
			c0.2-0.1,0.5,0.1,0.5,0.4c0,0.2,0,0.4,0,0.7c-0.1,0.6-0.2,1.1-0.4,1.7c0,0,0,0,0,0c0.1-0.2,0.2-0.3,0.4-0.5
			c0.3-0.4,0.6-0.8,0.9-1.2c0-0.1,0.1-0.1,0.1-0.2c0.2-0.4,0.3-0.7,0.6-1.1c0.1-0.2,0.3-0.3,0.5-0.4c0.4-0.1,0.8,0.1,0.9,0.5
			c0.1,0.3,0,0.7-0.1,1c-0.1,0.5-0.3,1-0.6,1.4c-0.1,0.2-0.3,0.4-0.5,0.5c-0.2,0.1-0.4,0.2-0.6,0c0,0-0.1-0.1-0.1-0.1
			c0,0,0,0.1,0,0.1c-0.1,0.4-0.2,0.7-0.1,1.1c0,0.1,0,0.2,0.1,0.3c0,0.1,0.1,0.1,0.2,0.1c0.2,0,0.4-0.2,0.5-0.3
			c0.3-0.2,0.6-0.5,0.8-0.8c0.6-0.8,1.2-1.7,1.6-2.6c0-0.1,0.1-0.1,0.1-0.2c0.1-0.1,0.2-0.1,0.3,0c0.1,0.1,0.1,0.2,0.1,0.3
			c-0.3,0.4-0.5,0.8-0.8,1.3c-0.4,0.7-0.9,1.3-1.4,1.9c-0.3,0.3-0.5,0.6-0.9,0.7c-0.2,0.1-0.4,0.2-0.6,0.1c-0.3-0.1-0.4-0.3-0.5-0.6
			c-0.1-0.4-0.1-0.9,0-1.3c0-0.3,0.1-0.6,0.1-0.9c0,0,0,0,0-0.1c-0.1,0.2-0.2,0.3-0.3,0.4c-0.3,0.4-0.6,0.9-1,1.3c0,0,0,0,0,0
			c-0.1,0.1-0.2,0.1-0.2,0.1c-0.1,0-0.1-0.1-0.1-0.2c0.1-0.7,0.3-1.5,0.4-2.2c0-0.2,0-0.3,0-0.5c0,0,0,0,0,0.1
			c-0.5,0.8-0.9,1.5-1.4,2.3c-0.4,0.6-0.8,1.3-1.1,1.9c-0.1,0.1-0.2,0.2-0.3,0.1c-0.1-0.1-0.1-0.1,0-0.2c0.1-0.5,0.2-0.9,0.3-1.4
			c0.3-1,0.5-2,0.8-3.1c0-0.2,0.1-0.4,0.2-0.6c-0.2,0.2-0.4,0.5-0.5,0.7c0,0,0,0.1-0.1,0.1c-0.1,0.1-0.2,0.1-0.2,0
			c-0.1-0.1-0.1-0.1-0.1-0.2c0.3-0.5,0.5-1,0.8-1.5c0.2-0.4,0.5-0.8,0.7-1.3c0,0,0-0.1,0.1-0.1c0.2-0.6,0.4-1.2,0.7-1.8
			c0-0.1,0.1-0.1,0.1-0.2c-0.2,0-0.4,0-0.6,0c-0.4,0-0.7,0-1.1,0.1c-0.5,0-1,0.1-1.5,0.1c-0.1,0-0.2,0-0.3,0c-0.1,0-0.1,0-0.1,0.1
			c-0.2,0.8-0.4,1.5-0.7,2.3c-0.5,1.7-1,3.5-1.5,5.2c-0.4,1.3-0.7,2.6-1.1,3.9c-0.1,0.3-0.2,0.6-0.3,1c0,0.1-0.1,0.2-0.2,0.1
			c-0.1,0-0.2-0.1-0.1-0.2c0.1-0.6,0.3-1.1,0.4-1.7c0.3-1.3,0.6-2.6,1-3.9c0.4-1.5,0.7-3,1.1-4.5c0.2-0.7,0.3-1.4,0.5-2.1
			c0,0,0,0,0,0c-0.2,0-0.3,0-0.5,0c-0.4,0-0.7,0-1.1,0.1C18,14,17.6,14,17.1,14c-0.4,0-0.7,0-1.1,0.1c-0.5,0-1,0.1-1.4,0.1
			c-0.3,0-0.6,0-1,0.1c-0.5,0-1,0.1-1.5,0.1c-0.1,0-0.1,0-0.2-0.1c0-0.1,0-0.1,0-0.2c0,0,0.1-0.1,0.1-0.1c0.5,0,0.9-0.1,1.4-0.1
			c0.5,0,1.1-0.1,1.6-0.1c0.5,0,0.9-0.1,1.4-0.1c0.5,0,0.9-0.1,1.4-0.1c0.4,0,0.8-0.1,1.2-0.1c0.4,0,0.8-0.1,1.1-0.1
			c0.1,0,0.1,0,0.1-0.1c0.3-1.1,0.5-2.2,0.8-3.3c0.1-0.2,0.2-0.3,0.4-0.4c0,0,0,0,0,0c0,0,0,0,0,0c0,0,0,0,0.1,0
			c0.3,0,0.4,0.3,0.4,0.6c-0.2,0.9-0.5,1.7-0.7,2.6c-0.1,0.2-0.1,0.4-0.2,0.6c0.1,0,0.3,0,0.4,0c0.3,0,0.6,0,1-0.1
			c0.4,0,0.8-0.1,1.2-0.1c0.3,0,0.6,0,0.9-0.1c0.4,0,0.8-0.1,1.2-0.1c0.3,0,0.6,0,0.9-0.1c0.4,0,0.8-0.1,1.2-0.1
			c0.3,0,0.6,0,0.9-0.1c0.4,0,0.8-0.1,1.2-0.1c0.3,0,0.6,0,0.9-0.1c0.4,0,0.8-0.1,1.2-0.1c0.3,0,0.6,0,1-0.1c0.4,0,0.8-0.1,1.2-0.1
			c0.3,0,0.6-0.1,1-0.1c0.2,0,0.5,0,0.7-0.1c0.2,0,0.4,0.1,0.4,0.3c0,0,0,0.1,0,0.1C36.5,12.5,36.5,12.5,36.5,12.6z M27.6,18.2
			C27.5,18.2,27.5,18.2,27.6,18.2c-0.1,0-0.1,0.1-0.1,0.1c-0.2,0.3-0.4,0.7-0.6,1.1c-0.1,0.2-0.2,0.5-0.1,0.7c0,0.1,0,0.1,0.1,0.2
			c0.1,0,0.1-0.1,0.2-0.1c0.2-0.2,0.3-0.4,0.3-0.6c0.1-0.3,0.1-0.6,0.2-0.9C27.5,18.6,27.5,18.4,27.6,18.2z"/>
	</g>
</g>
<g>
	<path fill="#FFFFFF" d="M30.2,53.5V53l0.2-0.3v-0.7c0.1,0,0.1,0,0.1,0v-0.4h-0.1v-0.4l0.3-0.3v-2.3h-0.3v-0.1c0.1,0,0.1,0,0.1,0
		v-0.4h-0.1v-1c0.2-0.1,0.4-0.1,0.6-0.2c0.4-0.2,0.8-0.5,1.1-0.9c0.3-0.4,0.4-0.9,0.5-1.3c0-0.5,0-0.9,0-1.4l0-5.2h0.1v0.1H33v-0.5
		v-0.3v-0.1h-0.3v0.1h-0.6v-0.1h-0.4v-2.4c0-1.2-0.9-2.1-2-2.1s-2,0.9-2,2.1v2.4h-0.4v0.1h-0.6v-0.1h-0.3v0.1v0.3v0.5h0.3v-0.1h0.2
		v6.5c0,1.2,0.9,2.3,2.1,2.6v1h-0.1v0.4c0,0,0,0,0.1,0v0.1h-0.3V51l0.3,0.3v0.4h-0.1v0.4c0,0,0,0,0.1,0v0.7l0.2,0.3v0.5
		c0,0,0,0,0.1,0v3.4c0.3,0,0.6,0,0.9,0L30.2,53.5C30.1,53.5,30.2,53.5,30.2,53.5z M29.6,46.9C29.6,46.9,29.6,46.9,29.6,46.9
		C29.5,46.9,29.5,46.9,29.6,46.9c-0.5,0-0.9-0.1-1.2-0.3c-0.4-0.2-0.7-0.5-1-0.9c-0.2-0.4-0.3-0.8-0.3-1.3l0-1.3l0-5h0.1v0.1h0.4
		v0.1c0,0-0.1,0-0.1,0v6.4c0,1.1,1,2,2.1,2c1.2,0,2.1-0.9,2.1-2v-6.4c0,0-0.1,0-0.1,0v-0.1h0.4v-0.1h0.2v6.4
		C32.2,45.9,31.1,46.9,29.6,46.9C29.6,46.9,29.6,46.9,29.6,46.9z"/>
</g>
<g>
	<path fill="#FFFFFF" d="M56.4,27.6c-0.4,0.8-1,1.6-1.6,2.3c-0.3,0.3-0.6,0.6-1.1,0.6c0-0.3,0.1-0.5,0.1-0.8c0.4-1.1,1-2.1,1.7-3
		c0.3-0.5,0.3-1-0.1-1.3c-0.4-0.3-0.9-0.3-1.3,0.1c-0.2,0.2-0.4,0.4-0.6,0.6c-0.9,0.9-1.8,1.8-2.6,2.8c-0.7,0.8-1.4,1.7-2,2.6
		c0,0,0-0.1,0.1-0.2c1-2.5,1.9-5,2.9-7.5c0.1-0.2,0.2-0.4,0.2-0.6c0.1-0.5-0.1-0.9-0.5-1.1c-0.4-0.2-0.9,0-1.1,0.4
		c-0.1,0.2-0.3,0.5-0.4,0.7c-0.8,1.5-1.5,2.9-2.3,4.4c-0.5,1-1.1,2-2,2.7c-0.2,0.2-0.6,0.4-0.9,0.4c-0.3,0.1-0.7-0.3-0.6-0.7
		c0.1-0.3,0.2-0.5,0.2-0.8c0.2-0.9,0.4-1.9-0.1-2.8c0,0,0-0.1,0-0.1c0-0.7-0.3-1-1-1c-0.8,0-1.4,0.5-1.9,1.1c-0.7,0.9-1.3,1.9-2,2.8
		c-0.7,0.9-1.3,1.8-2,2.7c0-0.1,0-0.2,0-0.2c0.3-1.3,0.6-2.5,0.8-3.8c0.1-0.5,0.1-0.9,0-1.4c-0.1-0.8-0.9-1.1-1.6-0.6
		c-0.2,0.2-0.4,0.4-0.6,0.6c-1.2,1.6-2.2,3.4-3.1,5.2c-0.1,0.1-0.1,0.2-0.2,0.3c0-0.1,0-0.1,0-0.2c0.8-2.5,1.6-5,2.4-7.4
		c0.6-2,1.4-4,2.5-5.8c0.4-0.6,0.6-1.3,0.8-1.9c0.2-0.4,0.1-0.9-0.2-1.3c-0.5-0.5-1.4-0.4-1.7,0.3c-0.4,0.8-0.8,1.6-1.1,2.4
		c-0.5,1.2-0.8,2.4-1.4,3.5c-1.1,1.8-2,3.7-3.1,5.4c-1.4,2.2-3,4.3-5,6c-0.3,0.3-0.7,0.5-1.1,0.6c-0.6,0.3-0.9,0-0.9-0.6
		c0-0.5,0-0.9,0.2-1.4c0.3-1.3,0.9-2.6,1.7-3.7c0.4-0.5,0.9-1,1.4-1.5c0.3-0.3,0.6-0.5,1-0.4c0.6,0.1,1.1-0.3,1.1-0.8
		c0-0.6-0.4-1-1-1c-0.9,0-1.6,0.4-2.2,0.9C25.2,26,24.5,27,24,28.1c-0.6,1.4-1.4,2.8-2.3,4c-0.1,0.1-0.2,0.2-0.3,0.3
		c0-0.2,0-0.3,0-0.4c0.1-1.1,0.2-2.2,0.3-3.4c0-0.5,0-1.1-0.2-1.6c-0.2-0.5-0.8-0.7-1.3-0.4c-0.3,0.2-0.6,0.4-0.8,0.6
		c-0.9,1-1.8,2-2.6,2.9c-0.3,0.3-0.5,0.7-0.8,1c0-0.1,0-0.2,0.1-0.3c0.7-1.6,1.4-3.3,2.2-4.9c0.1-0.3,0.2-0.6,0-0.9
		c-0.2-0.4-0.5-0.6-0.9-0.5c-0.4,0-0.7,0.3-0.8,0.7c-0.4,1.3-0.8,2.6-1.2,3.9c-0.7,2.1-1.4,4.3-2.5,6.3c-0.2,0.3-0.1,0.6,0.2,0.7
		c0.3,0.1,0.6,0,0.8-0.3c0.3-0.5,0.6-0.9,1-1.4c1.6-2.1,3.5-4,5.3-5.9c0,0,0.1-0.1,0.2-0.1c0,0.1,0,0.1,0,0.2c0,1,0,2,0.1,3.1
		c0,0.5,0.1,1,0.2,1.4c0.2,0.6,0.8,0.7,1.3,0.3c0.1-0.1,0.2-0.2,0.2-0.2c0.2-0.3,0.5-0.5,0.7-0.9c0,0.3,0,0.4,0,0.6
		c0.1,1.4,1.2,2.1,2.5,1.4c0.6-0.4,1.2-0.8,1.8-1.3c1.3-1.2,2.3-2.6,3.4-3.9c0.5-0.6,0.9-1.2,1.4-1.8c0.4-0.5,0.8-1.1,1.2-1.6
		c0,0.1,0,0.1,0,0.1c-0.8,3.2-1.6,6.4-2.4,9.5c-0.2,0.6-0.3,1.3-0.4,1.9c0,0.1,0.1,0.3,0.2,0.4c0.1,0,0.3,0,0.4-0.1
		c0.1,0,0.1-0.2,0.2-0.3c1.8-2.9,3.5-5.8,5.3-8.7c0.2-0.3,0.4-0.5,0.6-0.9c0,0.1,0,0.2,0,0.2c-0.1,0.9-0.3,1.8-0.4,2.7
		c-0.2,1.1-0.4,2.2-0.6,3.2c0,0.2,0,0.5,0.2,0.6c0.2,0.1,0.4,0,0.6-0.2c0.5-0.6,0.9-1.2,1.4-1.9c0.4-0.5,0.8-1,1.2-1.6
		c0,0.1,0,0.2,0,0.2c-0.1,0.7-0.3,1.4-0.2,2.1c0.1,1,0.8,1.6,1.7,1.5c0.5-0.1,0.9-0.3,1.2-0.6c0.4-0.5,0.8-1,1.2-1.5
		c0.2-0.3,0.4-0.7,0.6-1c0.9,0.6,1.7,0.2,2.4-0.4c0.7-0.6,1.2-1.3,1.7-2.1c0.2-0.3,0.4-0.6,0.6-1c-0.2,1-0.5,2-0.8,3
		c-0.3,1.3-0.5,2.5-0.8,3.8c-0.1,0.3,0,0.5,0.3,0.6c0.3,0.1,0.4-0.1,0.5-0.3c1.3-2.3,3-4.3,5-6.1c0.1-0.1,0.1-0.1,0.2-0.1
		c0,0.5-0.1,1-0.1,1.4c0,0.8,0.7,1.2,1.4,0.9c0.5-0.2,1-0.6,1.3-1.1c0.3-0.4,0.6-0.8,0.9-1.2c0-0.1,0-0.2,0-0.3
		C56.5,28.3,56.5,28,56.4,27.6z M42.8,30.3c-0.3,0.9-0.6,1.8-1.2,2.5c-0.2,0.2-0.4,0.4-0.6,0.6c-0.5,0.4-1,0.1-1-0.5
		c-0.1-0.9,0.2-1.8,0.6-2.6c0.5-1.1,1-2.1,1.9-2.9c0,0,0.1-0.1,0.1-0.1c-0.1,1,0.1,1.9,0.3,2.8C42.8,30.2,42.8,30.3,42.8,30.3z"/>
	<path fill="#FFFFFF" d="M12,38c0.2,0,0.4,0,0.6,0c1.7,0.1,3.4,0.1,5.1,0.2c1.3,0,2.6,0.1,3.9,0.1c2.4,0.1,4.9,0.2,7.3,0.2
		c0.8,0,1.4-0.8,1-1.5c-0.2-0.4-0.6-0.6-1.1-0.6c-5.2,0-10.5-0.1-15.7-0.1c-0.3,0-0.6,0-0.9,0c0.1-0.6,0.1-1.2,0.2-1.7
		c0.2-1.3,0.3-2.7,0.5-4c0.2-1.3,0.3-2.6,0.4-4c0.2-1.4,0.3-2.7,0.5-4.1c0.1-1.2,0.3-2.5,0.4-3.7c0.1-1.3,0.3-2.6,0.4-3.9
		c0.1-1.1,0.2-2.2,0.3-3.3C15,10.7,15,9.9,15.1,9c0-0.5-0.5-1-1-1c-0.5,0-0.8,0.2-1.1,0.8c-0.8,1.8-1.6,3.7-2.4,5.5
		c-3.1,7-6.5,13.9-9.9,20.8c0.2,0.9,0.4,1.7,0.7,2.5c0.8,0,1.6,0.1,2.4,0.1c2.2,0.1,4.3,0.1,6.5,0.2c0.2,0,0.3,0,0.5,0
		c0,0.4,0,0.9-0.1,1.3c-0.1,1-0.6,7.1-0.9,10.9c0.3,0.2,0.6,0.5,0.9,0.7c0.3-3.7,0.9-10.1,1-11C11.9,39.2,11.9,38.6,12,38z
		 M1.2,36.3C5,29,8.8,21.8,12.7,14.5c-0.5,7.2-1.1,14.5-1.6,21.8C7.7,36.3,4.4,36.3,1.2,36.3z"/>
</g>
</svg>
